<svg width="614" height="158" viewBox="0 0 614 158" fill="none" xmlns="http://www.w3.org/2000/svg">
<path d="M71.4814 98.1849L71.5136 98.2775C71.6211 98.5861 71.7715 99.0182 71.9649 99.5737C72.2416 100.169 72.4229 100.591 72.5088 100.838C75.6466 109.85 74.3485 117.153 68.6145 122.748C65.4108 125.871 61.6177 128.195 57.2353 129.721C51.3714 131.763 46.0182 131.792 41.1756 129.811C31.0127 125.667 23.8023 117.381 19.5442 104.953C17.653 99.521 16.152 93.1229 15.0411 85.7583C14.1805 80.1061 14.6014 74.4575 16.304 68.8126C17.1352 66.0317 18.8266 63.4357 21.3783 61.0247C23.9703 58.5305 27.0254 56.6708 30.5437 55.4458C34.6176 54.0274 38.7898 53.7859 43.0603 54.7212C47.3711 55.5734 51.1373 57.4456 54.359 60.338C56.284 62.09 57.7394 64.2824 58.7252 66.915C59.6681 69.4243 59.8568 71.9539 59.2913 74.5039C58.5516 77.945 56.8775 80.2926 54.2691 81.5469C50.0987 83.4834 45.5948 82.8715 40.7573 79.7113C40.6311 79.5476 40.2497 78.8499 39.6132 77.6181C39.1459 76.6735 38.5218 76.3717 37.7409 76.7129L37.3952 78.7018C41.3342 92.0024 43.3573 98.8071 43.4648 99.1157C44.0881 100.906 44.7623 102.643 45.4875 104.329C46.2127 106.014 47.351 106.898 48.9024 106.981C50.3005 106.425 52.1907 104.002 54.5727 99.7121C57.0165 95.4008 58.8864 93.0195 60.1827 92.5682C61.1703 92.2243 62.264 92.0858 63.4637 92.1525C67.3474 91.9768 70.02 93.9876 71.4814 98.1849Z" fill="white"/>
<path d="M142.893 96.3301L142.918 96.4252C143.122 99.6105 141.737 101.986 138.764 103.553C137.277 104.336 135.679 104.946 133.969 105.381C130.865 106.171 128.146 106.088 125.812 105.132C123.95 103.65 122.821 102.656 122.422 102.15C121.179 100.713 120.227 98.6962 119.566 96.0994C117 96.6179 114.151 97.4784 111.017 98.681C111.289 99.2188 111.633 100.042 112.05 101.149C112.712 103.746 112.669 106.624 111.922 109.782C110.746 112.846 108.385 114.83 104.838 115.733C103.128 116.169 100.925 116.392 98.2306 116.404L97.9922 116.263C91.9311 114.973 87.5537 109.04 84.8601 98.4626C84.6826 97.7659 84.3266 96.103 83.792 93.4739C81.7664 83.4008 80.7009 75.3763 80.5954 69.4005C80.4633 60.9361 81.9976 52.924 85.1983 45.3644C87.6933 39.5357 92.4877 35.7181 99.5816 33.9116C107.182 31.9761 113.519 32.8916 118.592 36.658C121.582 38.8642 124.028 41.7149 125.93 45.2099C132.817 57.6871 137.55 68.9927 140.131 79.1268C141.647 85.0806 142.568 90.815 142.893 96.3301ZM112.518 77.5594C111.655 72.3161 109.298 64.3845 105.447 53.7646C104.89 53.4341 104.266 53.7618 103.572 54.7477C104.12 60.3411 104.631 64.8646 105.106 68.3183C105.973 74.3701 106.606 77.7834 107.006 78.5584C107.5 79.1745 108.127 79.3858 108.887 79.1922C109.14 79.1277 109.749 78.8714 110.714 78.4233C111.727 77.8958 112.328 77.6078 112.518 77.5594Z" fill="white"/>
<path d="M199.765 29.2106L199.862 29.1947C200.214 30.1303 200.518 31.372 200.773 32.9198C201.239 36.1551 200.868 38.7331 199.66 40.6539C199.186 41.3943 196.701 42.5978 192.206 44.2645C187.765 45.856 185.501 46.7914 185.415 47.0705C185.402 47.8012 187.252 54.4187 190.965 66.9231C191.712 69.4498 192.297 72.003 192.722 74.5827C193.687 80.4516 193.709 85.4159 192.787 89.4755C191.637 94.5662 189.181 97.3547 185.419 97.8409C179.325 98.6446 174.788 97.4368 171.808 94.2177C169.556 91.806 167.916 87.671 166.886 81.8128C166.971 82.3287 166.543 78.9216 165.602 71.5915L164.049 59.1293C163.671 55.2173 163.538 51.7947 163.652 48.8615C163.286 49.0542 162.716 49.2141 161.943 49.3414C159.75 49.7021 157.499 49.708 155.189 49.3592C152.063 48.8798 149.799 47.7951 148.395 46.1051C146.412 43.7155 145.23 41.3598 144.848 39.038C144.211 35.1685 145.846 31.8195 149.753 28.9911C154.779 25.3163 161.161 22.8424 168.9 21.5695C172.963 20.9013 177.283 20.5881 181.861 20.6301C184.116 21.054 187.537 21.7167 192.123 22.6184C196.043 23.8946 198.59 26.0921 199.765 29.2106Z" fill="white"/>
<path d="M327.008 74.1309C327.073 77.5289 326.438 80.1888 325.103 82.1104C324.021 83.6348 322.602 84.6428 320.847 85.1344C319.937 85.4135 318.604 85.7661 316.847 86.1923C315.481 86.5456 314.602 86.726 314.21 86.7336C311.4 86.7879 308.991 85.5924 306.982 83.1471C304.972 80.6365 303.932 77.5187 303.86 73.7939C303.832 72.3563 304.127 69.0166 304.745 63.775C305.254 59.7121 305.225 56.5094 304.657 54.167C304.349 55.1535 303.394 58.1464 301.791 63.1457C299.69 69.462 297.771 73.3233 296.033 74.7297C295.068 75.5328 293.899 75.9476 292.527 75.9742C291.481 75.9944 290.396 75.6558 289.272 74.9585C285.672 71.3672 282.79 64.3301 280.627 53.8471C280.331 55.4871 280.2 57.1566 280.233 58.8557C280.252 59.8359 280.573 62.9348 281.197 68.1525C281.661 71.8697 281.719 74.843 281.37 77.0724C280.903 79.9578 279.547 82.5335 277.303 84.7995C275.041 86.1507 272.864 86.8465 270.773 86.8869C267.898 86.9425 265.227 85.7194 262.76 83.2176C259.992 78.695 258.365 75.6867 257.878 74.1926C256.841 71.2709 256.266 66.8694 256.152 60.9882C256.047 55.5644 256.319 45.9495 256.967 32.1435C257.202 27.3668 258.561 23.2875 261.045 19.9055C263.593 16.4569 267.045 14.0695 271.399 12.7433C280.085 12.3139 286.83 19.6685 291.633 34.8073C291.906 31.991 292.846 28.2467 294.456 23.5742C296.808 16.73 299.537 12.5262 302.645 10.9625C305.699 9.9883 308.304 9.48033 310.46 9.43864C314.054 9.36916 316.82 10.427 318.758 12.6122C321.286 14.8513 323.074 17.7585 324.124 21.3336C324.824 23.7388 325.323 27.5861 325.622 32.8755C325.781 37.7099 325.939 42.5443 326.098 47.3788C326.567 58.0907 326.869 66.9754 327.006 74.0329L327.008 74.1309Z" fill="white"/>
<path d="M395.226 83.7492L395.218 83.8469C394.383 86.9278 392.306 88.7297 388.986 89.2529C387.326 89.5144 385.617 89.5754 383.858 89.4357C380.665 89.1821 378.118 88.2258 376.218 86.5669C374.934 84.5636 374.186 83.2584 373.972 82.6513C373.259 80.89 373.009 78.6737 373.221 76.0024C370.625 75.6651 367.65 75.56 364.296 75.687C364.38 76.2837 364.441 77.1737 364.478 78.3568C364.266 81.0281 363.296 83.7377 361.57 86.4854C359.469 89.0067 356.593 90.1225 352.945 89.8327C351.186 89.693 349.029 89.1939 346.474 88.3353L346.295 88.1243C340.974 84.948 338.745 77.9195 339.61 67.0387C339.666 66.322 339.866 64.6332 340.209 61.9722C341.542 51.7844 343.123 43.8454 344.952 38.1553C347.559 30.1011 351.597 23.0129 357.066 16.8908C361.308 12.1792 367.078 10.1132 374.376 10.6927C382.194 11.3136 387.897 14.2252 391.483 19.4274C393.601 22.4805 394.996 25.9679 395.668 29.8896C398.159 43.9218 398.991 56.1502 398.163 66.5749C397.677 72.6994 396.698 78.4242 395.226 83.7492ZM372.533 56.1798C373.409 50.9385 373.737 42.6707 373.52 31.3761C373.1 30.8838 372.403 30.9924 371.429 31.7018C370.142 37.1727 369.166 41.6191 368.501 45.0413C367.368 51.0489 366.866 54.484 366.994 55.3465C367.263 56.0891 367.788 56.4914 368.57 56.5535C368.83 56.5742 369.49 56.5282 370.548 56.4155C371.676 56.2429 372.338 56.1643 372.533 56.1798Z" fill="white"/>
<path d="M470.717 38.5752L470.814 38.5913C470.845 39.5906 470.732 40.8638 470.473 42.411C469.87 45.6235 468.687 47.9439 466.924 49.3722C466.237 49.9199 463.496 50.2572 458.704 50.384C453.987 50.4571 451.542 50.6118 451.37 50.8481C451.123 51.5357 450.738 58.3962 450.217 71.4297C450.108 74.0622 449.838 76.6678 449.408 79.2464C448.427 85.1127 446.846 89.8184 444.663 93.3633C441.931 97.8105 438.707 99.6572 434.99 98.9034C428.962 97.6973 425.058 95.0899 423.276 91.0812C421.923 88.072 421.705 83.6288 422.621 77.7517C422.535 78.2674 423.229 74.9045 424.704 67.663L427.257 55.3665C428.161 51.5416 429.14 48.2594 430.194 45.5199C429.786 45.5842 429.195 45.5517 428.421 45.4224C426.23 45.0561 424.097 44.3353 422.024 43.2598C419.22 41.7973 417.426 40.0397 416.643 37.987C415.537 35.0854 415.179 32.4742 415.566 30.1534C416.213 26.2855 418.841 23.6434 423.451 22.2271C429.394 20.3708 436.234 20.0891 443.969 21.382C448.031 22.0607 452.221 23.1586 456.54 24.6755C458.538 25.8046 461.562 27.5359 465.611 29.8694C468.909 32.3422 470.611 35.2441 470.717 38.5752Z" fill="white"/>
<path d="M524.435 92.7646L524.411 92.8597C524.331 93.1765 524.219 93.6201 524.075 94.1904C523.978 94.8401 523.898 95.2917 523.834 95.5452C521.497 104.797 516.395 110.182 508.529 111.701C504.136 112.546 499.69 112.4 495.19 111.264C489.17 109.743 484.683 106.823 481.73 102.504C475.522 93.4536 474.058 82.5675 477.339 69.8464C478.748 64.2699 481.014 58.101 484.137 51.3399C486.528 46.1462 489.987 41.6606 494.514 37.883C496.738 36.0179 499.578 34.7805 503.035 34.1707C506.572 33.5136 510.146 33.6412 513.758 34.5536C517.941 35.6101 521.558 37.7034 524.609 40.8338C527.741 43.9167 529.856 47.552 530.955 51.7396C531.599 54.2617 531.609 56.8931 530.984 59.634C530.391 62.2482 529.157 64.4644 527.282 66.2828C524.771 68.7496 522.082 69.7893 519.213 69.4018C514.665 68.7249 511.241 65.7364 508.939 60.4361C508.924 60.23 508.989 59.4376 509.135 58.0588C509.265 57.0129 508.91 56.4176 508.07 56.2729L506.687 57.7437C502.66 71.0179 500.606 77.8134 500.526 78.1302C500.062 79.968 499.669 81.79 499.348 83.5963C499.026 85.4027 499.491 86.7671 500.741 87.6896C502.214 87.9943 505.125 87.0107 509.474 84.7386C513.887 82.4826 516.758 81.5226 518.089 81.8588C519.103 82.1149 520.093 82.6008 521.058 83.3165C524.398 85.3062 525.523 88.4555 524.435 92.7646Z" fill="white"/>
<path d="M555.096 53.5521L555.004 53.5201C558.66 51.7381 562.558 51.5603 566.698 52.9869C570.158 54.1793 572.532 55.5157 573.819 56.9963C574.994 59.4058 574.983 62.5474 573.786 66.4212C572.372 69.3214 570.7 73.2731 568.768 78.2763C568.573 81.2507 569.217 82.9935 570.7 83.5045C571.256 83.6961 572.217 83.7161 573.583 83.5645C574.369 83.4898 575.331 82.404 576.468 80.3072C577.204 76.9661 578.479 72.4627 580.294 66.7969C581.648 63.6687 584.645 61.5907 589.286 60.5626C590.176 60.3856 592.095 60.7356 595.042 61.6128C597.226 62.2962 598.657 62.8584 599.334 63.2993C601.86 64.999 602.989 67.7387 602.724 71.5186C602.671 72.6755 602.649 73.8431 602.658 75.0214C602.511 77.2522 602.107 79.4288 601.445 81.5511C598.835 90.33 596.784 96.8822 595.294 101.208C592.143 110.353 587.096 119.883 580.155 129.796C577.995 132.854 574.531 134.08 569.762 133.474C566.707 133.112 564.516 132.047 563.19 130.276C561.375 127.922 560.899 124.889 561.763 121.178C561.98 120.146 562.618 118.396 563.676 115.926C564.796 113.478 565.496 111.749 565.775 110.739C565.936 109.066 565.214 107.953 563.607 107.399C562.062 106.867 560.469 106.975 558.829 107.723C557.25 108.493 556.173 109.815 555.596 111.69C555.479 113.033 555.155 115.375 554.626 118.718C554.211 120.926 553.564 122.501 552.687 123.442C551.37 124.855 549.75 125.645 547.826 125.812C546.544 125.923 544.419 125.467 541.453 124.445C538.611 123.466 536.603 121.668 535.431 119.052C534.461 116.851 534.111 113.654 534.38 109.461C534.613 104.771 535.563 99.81 537.228 94.5767C539.619 87.0357 541.73 80.6081 543.561 75.2938C547.628 63.4912 551.473 56.2439 555.096 53.5521Z" fill="white"/>
</svg>
